<?xml version="1.0" encoding="utf-8"?>
<!-- Generator: Adobe Illustrator 16.0.0, SVG Export Plug-In . SVG Version: 6.00 Build 0)  -->
<!DOCTYPE svg PUBLIC "-//W3C//DTD SVG 1.1//EN" "http://www.w3.org/Graphics/SVG/1.1/DTD/svg11.dtd">
<svg version="1.1"
	 id="svg2" xmlns:dc="http://purl.org/dc/elements/1.1/" xmlns:cc="http://creativecommons.org/ns#" xmlns:rdf="http://www.w3.org/1999/02/22-rdf-syntax-ns#" xmlns:svg="http://www.w3.org/2000/svg" xmlns:sodipodi="http://sodipodi.sourceforge.net/DTD/sodipodi-0.dtd" xmlns:inkscape="http://www.inkscape.org/namespaces/inkscape" sodipodi:docname="Nuevo documento 1" inkscape:version="0.48.4 r9939"
	 xmlns="http://www.w3.org/2000/svg" xmlns:xlink="http://www.w3.org/1999/xlink" x="0px" y="0px" width="960px"
	 height="1052.361px" viewBox="0 0 960 1052.361" enable-background="new 0 0 960 1052.361" xml:space="preserve">
<sodipodi:namedview  showgrid="false" inkscape:cy="471.85931" inkscape:cx="528.61599" inkscape:zoom="0.98994949" borderopacity="1.0" bordercolor="#666666" pagecolor="#ffffff" id="base" inkscape:current-layer="layer1" inkscape:pageshadow="2" inkscape:document-units="px" inkscape:pageopacity="0.0" inkscape:window-maximized="1" inkscape:window-y="25" inkscape:window-x="0" inkscape:window-height="709" inkscape:window-width="1354">
	</sodipodi:namedview>
<g id="layer1" inkscape:label="Capa 1" inkscape:groupmode="layer">
	<rect id="rect3013" x="0" y="170.499" fill="#FFFFFF" stroke="#000000" stroke-width="3" width="961.665" height="59.599"/>
	
		<rect id="rect3913" x="1.465" y="1.521" fill="#FFFFFF" stroke="#000000" stroke-width="2.9294" width="958.468" height="169.683"/>
	<rect id="rect2993" x="9.403" y="9.579" fill="#FFFFFF" stroke="#000000" stroke-width="1.138" width="156.338" height="156.337"/>
	<path id="path3765" inkscape:connector-curvature="0" fill="none" stroke="#000000" stroke-width="1.138" d="M9.403,165.916
		L165.74,11.112"/>
	<path id="path3767" inkscape:connector-curvature="0" fill="none" stroke="#000000" stroke-width="1.138" d="M8.253,6.514
		L166.89,165.916"/>
	<text transform="matrix(1 0 0 1 64.8782 33.5051)" font-family="'MyriadPro-Regular'" font-size="15.1732">LOGO</text>
	<text transform="matrix(1 0 0 1 47.429 52.4719)" font-family="'MyriadPro-Regular'" font-size="15.1732">PEQUEÑO</text>
	<text transform="matrix(1 0 0 1 325.2688 123.7776)" font-family="'MyriadPro-Regular'" font-size="144">Sparrow</text>
	<text transform="matrix(1 0 0 1 3.03 211.9153)" font-family="'MyriadPro-Regular'" font-size="40">Inicio  Buscar usuario  Buscar por tag      + chip</text>
	
		<rect id="rect3976" x="21.254" y="296.106" fill="#FFFFFF" stroke="#000000" stroke-width="3.082" width="919.156" height="547.42"/>
	
		<rect id="rect3978" x="29.052" y="280.086" fill="#FFFFFF" stroke="#000000" stroke-width="4.536" stroke-opacity="0" width="794.585" height="38.87"/>
	<text transform="matrix(1 0 0 1 40.3044 308.1858)" font-family="'MyriadPro-Regular'" font-size="48">Editando cuenta </text>
	<text transform="matrix(1 0 0 1 429.1042 308.1858)" font-family="'MyriadPro-Regular'" font-size="48">NombreCuenta</text>
	<text transform="matrix(1 0 0 1 59.3782 385.2463)" font-family="'MyriadPro-Regular'" font-size="40">Clave:</text>
	<text transform="matrix(1 0 0 1 60.8069 438.3899)" font-family="'MyriadPro-Regular'" font-size="40">E-mail:</text>
	<text transform="matrix(1 0 0 1 60.8069 491.8176)" font-family="'MyriadPro-Regular'" font-size="40">Nombre:</text>
	<text transform="matrix(1 0 0 1 60.8069 543.8176)" font-family="'MyriadPro-Regular'" font-size="40">Apellidos:</text>
	<text transform="matrix(1 0 0 1 60.8069 597.5325)" font-family="'MyriadPro-Regular'" font-size="40">Sexo:</text>
	<text transform="matrix(1 0 0 1 60.8069 649.5325)" font-family="'MyriadPro-Regular'" font-size="40">Idioma:</text>
	
		<rect id="rect3789" x="293.031" y="351.041" fill="#FFFFFF" stroke="#000000" stroke-width="1.7273" stroke-linejoin="round" width="566.222" height="34.165"/>
	
		<rect id="rect3789-0" x="293.983" y="404.736" fill="#FFFFFF" stroke="#000000" stroke-width="1.7273" stroke-linejoin="round" width="566.221" height="34.165"/>
	
		<rect id="rect3789-0-9" x="292.457" y="459.297" fill="#FFFFFF" stroke="#000000" stroke-width="1.7273" stroke-linejoin="round" width="566.221" height="34.165"/>
	
		<rect id="rect3789-6" x="292.365" y="510.745" fill="#FFFFFF" stroke="#000000" stroke-width="1.7273" stroke-linejoin="round" width="566.221" height="34.165"/>
	
		<rect id="rect3789-8" x="293.41" y="616.736" fill="#FFFFFF" stroke="#000000" stroke-width="1.7273" stroke-linejoin="round" width="566.222" height="34.165"/>
	
		<path id="path4623" sodipodi:rx="68.571426" sodipodi:cy="938.07648" sodipodi:cx="11.428572" sodipodi:type="arc" sodipodi:ry="67.14286" stroke="#000000" stroke-width="3" stroke-opacity="0" d="
		M332.449,579.394c0,10.614-8.787,19.219-19.627,19.22c-10.84,0-19.627-8.604-19.628-19.218c0,0,0-0.001,0-0.002
		c0-10.613,8.786-19.218,19.626-19.219C323.66,560.175,332.448,568.779,332.449,579.394L332.449,579.394z"/>
	
		<path id="path4623-0" sodipodi:rx="68.571426" sodipodi:cy="938.07648" sodipodi:cx="11.428572" sodipodi:type="arc" sodipodi:ry="67.14286" fill="#FFFFFF" stroke="#000000" stroke-width="3" stroke-opacity="0" d="
		M327.751,579.666c0.001,8.063-6.674,14.599-14.908,14.599c-8.233,0.001-14.909-6.535-14.909-14.598c0,0,0,0,0-0.001
		c-0.001-8.063,6.674-14.599,14.908-14.599C321.076,565.067,327.751,571.603,327.751,579.666L327.751,579.666z"/>
	
		<path id="path4623-1" sodipodi:rx="68.571426" sodipodi:cy="938.07648" sodipodi:cx="11.428572" sodipodi:type="arc" sodipodi:ry="67.14286" stroke="#000000" stroke-width="3" stroke-opacity="0" d="
		M470.005,579.246c0.001,10.614-8.786,19.219-19.626,19.22c-10.84,0-19.628-8.604-19.628-19.218c0-0.001,0-0.001,0-0.002
		c-0.001-10.613,8.786-19.219,19.626-19.219c10.84-0.001,19.628,8.604,19.628,19.217
		C470.005,579.245,470.005,579.246,470.005,579.246z"/>
	
		<path id="path4623-0-9" sodipodi:rx="68.571426" sodipodi:cy="938.07648" sodipodi:cx="11.428572" sodipodi:type="arc" sodipodi:ry="67.14286" fill="#FFFFFF" stroke="#000000" stroke-width="3" stroke-opacity="0" d="
		M465.308,579.519c0.001,8.063-6.674,14.599-14.908,14.599c-8.233,0.001-14.909-6.535-14.909-14.598v-0.001
		c-0.001-8.063,6.674-14.599,14.908-14.6c8.233,0,14.909,6.535,14.909,14.598C465.308,579.518,465.308,579.518,465.308,579.519z"/>
	<text transform="matrix(1 0 0 1 348.5022 598.5461)" font-family="'MyriadPro-Regular'" font-size="48">V</text>
	<text transform="matrix(1 0 0 1 491.7004 598.5461)" font-family="'MyriadPro-Regular'" font-size="48">M</text>
</g>
<g>
	<rect x="82.084" y="754.682" fill="none" stroke="#010002" stroke-width="4" stroke-miterlimit="10" width="148.417" height="42"/>
	<text transform="matrix(1 0 0 1 106.5002 783.6809)" fill="#010003" font-family="'MyriadPro-Regular'" font-size="23">Continuar</text>
</g>
<g>
	
		<rect x="733.065" y="754.682" fill="none" stroke="#010002" stroke-width="4" stroke-miterlimit="10" width="148.416" height="42"/>
	<text transform="matrix(1 0 0 1 779.5002 783.6809)" fill="#010003" font-family="'MyriadPro-Regular'" font-size="23">Volver</text>
</g>
</svg>
