<?xml version="1.0" encoding="utf-8"?>
<!-- Generator: Adobe Illustrator 16.0.0, SVG Export Plug-In . SVG Version: 6.00 Build 0)  -->
<!DOCTYPE svg PUBLIC "-//W3C//DTD SVG 1.1//EN" "http://www.w3.org/Graphics/SVG/1.1/DTD/svg11.dtd">
<svg version="1.1"
	 id="svg2" xmlns:dc="http://purl.org/dc/elements/1.1/" xmlns:cc="http://creativecommons.org/ns#" xmlns:rdf="http://www.w3.org/1999/02/22-rdf-syntax-ns#" xmlns:svg="http://www.w3.org/2000/svg" xmlns:sodipodi="http://sodipodi.sourceforge.net/DTD/sodipodi-0.dtd" xmlns:inkscape="http://www.inkscape.org/namespaces/inkscape" sodipodi:docname="busca_tag.svg" inkscape:version="0.48.4 r9939"
	 xmlns="http://www.w3.org/2000/svg" xmlns:xlink="http://www.w3.org/1999/xlink" x="0px" y="0px" width="960px"
	 height="1052.361px" viewBox="0 0 960 1052.361" enable-background="new 0 0 960 1052.361" xml:space="preserve">
<sodipodi:namedview  showgrid="false" inkscape:cy="601.15883" inkscape:cx="515.48401" inkscape:zoom="0.98994949" borderopacity="1.0" bordercolor="#666666" pagecolor="#ffffff" id="base" inkscape:current-layer="layer1" inkscape:pageshadow="2" inkscape:document-units="px" inkscape:pageopacity="0.0" inkscape:window-maximized="1" inkscape:window-y="25" inkscape:window-x="0" inkscape:window-height="709" inkscape:window-width="1354">
	</sodipodi:namedview>
<rect id="rect3013" x="0" y="170.499" fill="#FFFFFF" stroke="#000000" stroke-width="3" width="961.665" height="59.599"/>
<rect id="rect3913" x="1.465" y="1.521" fill="#FFFFFF" stroke="#000000" stroke-width="2.9294" width="958.468" height="169.683"/>
<rect id="rect2993" x="9.403" y="9.579" fill="#FFFFFF" stroke="#000000" stroke-width="1.138" width="156.338" height="156.337"/>
<path id="path3765" inkscape:connector-curvature="0" fill="none" stroke="#000000" stroke-width="1.138" d="M9.403,165.916
	L165.74,11.112"/>
<path id="path3767" inkscape:connector-curvature="0" fill="none" stroke="#000000" stroke-width="1.138" d="M8.253,6.514
	L166.89,165.916"/>
<text transform="matrix(1 0 0 1 64.8782 33.5051)" font-family="'MyriadPro-Regular'" font-size="15.1732">LOGO</text>
<text transform="matrix(1 0 0 1 47.429 52.4719)" font-family="'MyriadPro-Regular'" font-size="15.1732">PEQUEÑO</text>
<text transform="matrix(1 0 0 1 325.2688 123.7776)" font-family="'MyriadPro-Regular'" font-size="144">Sparrow</text>
<text transform="matrix(1 0 0 1 3.03 211.9153)" font-family="'MyriadPro-Regular'" font-size="40">Inicio   Buscar por tag      + chip    Config. cuenta</text>
<rect id="rect3976" x="21.254" y="296.106" fill="#FFFFFF" stroke="#000000" stroke-width="3.082" width="919.156" height="658.968"/>
<rect id="rect3978" x="28.776" y="279.81" fill="#FFFFFF" stroke="#000000" stroke-width="3.9835" stroke-opacity="0" width="604.219" height="39.423"/>
<text transform="matrix(1 0 0 1 40.3044 308.1858)" font-family="'MyriadPro-Regular'" font-size="48">Resultados de busqueda</text>
<rect x="897" y="296.104" fill="none" stroke="#010002" stroke-width="2" stroke-miterlimit="10" width="46.068" height="658.97"/>
<rect x="897" y="296.104" fill="none" stroke="#010002" stroke-width="2" stroke-miterlimit="10" width="46.068" height="44"/>
<polygon fill="#211915" stroke="#010002" stroke-width="2" stroke-miterlimit="10" points="920.034,303.988 936.334,332.22 
	903.734,332.22 "/>
<text transform="matrix(1 0 0 1 44.4294 384.0002)" fill="#211915" font-family="'MyriadPro-Regular'" font-size="48">Chip 1 (dd:mm:aa  hh:mm) [borrar]</text>
<text transform="matrix(1 0 0 1 44.4294 445.0002)" fill="#211915" font-family="'MyriadPro-Regular'" font-size="48">Chip 2 (dd:mm:aa  hh:mm) [borrar]</text>
<line fill="#FFFFFF" stroke="#211915" stroke-miterlimit="10" x1="17.625" y1="400" x2="897" y2="400"/>
<text transform="matrix(1 0 0 1 44.4294 506.0002)" fill="#211915" font-family="'MyriadPro-Regular'" font-size="48">Chip 3 (dd:mm:aa  hh:mm) [borrar]</text>
<line fill="#FFFFFF" stroke="#211915" stroke-miterlimit="10" x1="17.625" y1="521" x2="897" y2="521"/>
<text transform="matrix(1 0 0 1 44.1169 571.0002)" fill="#211915" font-family="'MyriadPro-Regular'" font-size="48">Chip 4 (dd:mm:aa  hh:mm) [borrar]</text>
<line fill="#FFFFFF" stroke="#211915" stroke-miterlimit="10" x1="17.312" y1="587" x2="896.688" y2="587"/>
<line fill="#FFFFFF" stroke="#211915" stroke-miterlimit="10" x1="17.312" y1="460" x2="896.688" y2="460"/>
</svg>
