<?xml version="1.0" encoding="utf-8"?>
<!-- Generator: Adobe Illustrator 16.0.0, SVG Export Plug-In . SVG Version: 6.00 Build 0)  -->
<!DOCTYPE svg PUBLIC "-//W3C//DTD SVG 1.1//EN" "http://www.w3.org/Graphics/SVG/1.1/DTD/svg11.dtd">
<svg version="1.1" id="Capa_1" xmlns="http://www.w3.org/2000/svg" xmlns:xlink="http://www.w3.org/1999/xlink" x="0px" y="0px"
	 width="960px" height="1052px" viewBox="0 0 960 1052" enable-background="new 0 0 960 1052" xml:space="preserve">
<g>
	<rect id="rect3913" x="0.465" y="2" fill="#FFFFFF" stroke="#030104" stroke-width="2.9294" width="958.469" height="169.682"/>
	
		<rect id="rect2993" x="8.403" y="10.058" fill="#FFFFFF" stroke="#030104" stroke-width="1.138" width="156.337" height="156.337"/>
	<path id="path3765" inkscape:connector-curvature="0" fill="none" stroke="#030104" stroke-width="1.138" d="M8.403,166.395
		L164.74,11.591"/>
	<path id="path3767" inkscape:connector-curvature="0" fill="none" stroke="#030104" stroke-width="1.138" d="M7.253,6.993
		L165.89,166.395"/>
	<text transform="matrix(1 0 0 1 63.8784 33.9844)" fill="#030104" font-family="'MyriadPro-Regular'" font-size="15.1732">LOGO</text>
	<text transform="matrix(1 0 0 1 46.4292 52.9502)" fill="#030104" font-family="'MyriadPro-Regular'" font-size="15.1732">PEQUEÑO</text>
	<text transform="matrix(1 0 0 1 324.269 124.2559)" fill="#030104" font-family="'MyriadPro-Regular'" font-size="144">Sparrow</text>
</g>
<rect id="rect3976" x="19.625" y="305.104" fill="#FFFFFF" stroke="#030104" stroke-width="3" width="925.444" height="658.97"/>
<g>
	<rect x="29" y="263.104" fill="none" stroke="#030104" stroke-width="4" stroke-miterlimit="10" width="148.416" height="42"/>
	<text transform="matrix(1 0 0 1 53.416 292.103)" fill="#030104" font-family="'MyriadPro-Regular'" font-size="23">Mis chips</text>
</g>
<text transform="matrix(1 0 0 1 12 216.5732)" font-family="'MyriadPro-Regular'" font-size="48">Inicio</text>
<rect x="0.465" y="171.682" fill="none" stroke="#000000" stroke-width="6" stroke-miterlimit="10" width="959.535" height="63.318"/>
<text transform="matrix(1 0 0 1 150 216.5732)" font-family="'MyriadPro-Regular'" font-size="48">Buscar usuario</text>
<text transform="matrix(1 0 0 1 470 216.5732)" font-family="'MyriadPro-Regular'" font-size="48">Buscar por tag</text>
<image overflow="visible" width="298" height="297" xlink:href="31B5CEC4.jpg"  transform="matrix(0.1777 0 0 0.1777 899 176.5371)">
</image>
<line fill="#FFFFFF" stroke="#000000" stroke-miterlimit="10" x1="134" y1="171.682" x2="134" y2="235"/>
<line fill="none" stroke="#000000" stroke-miterlimit="10" x1="455" y1="171.682" x2="455" y2="235"/>
<line fill="none" stroke="#000000" stroke-miterlimit="10" x1="886" y1="171.682" x2="886" y2="235"/>
<g>
	
		<rect x="177.416" y="263.104" fill="none" stroke="#030104" stroke-width="4" stroke-miterlimit="10" width="148.416" height="42"/>
	<text transform="matrix(1 0 0 1 187.832 292.103)" fill="#030104" font-family="'MyriadPro-Regular'" font-size="23">Suscripciones</text>
</g>
<rect x="899" y="305.104" fill="none" stroke="#030104" stroke-width="2" stroke-miterlimit="10" width="46.068" height="658.97"/>
<rect x="899" y="305.104" fill="none" stroke="#030104" stroke-width="2" stroke-miterlimit="10" width="46.068" height="44"/>
<rect x="899" y="920.073" fill="none" stroke="#030104" stroke-width="2" stroke-miterlimit="10" width="46.068" height="44"/>
<polygon stroke="#030104" stroke-width="2" stroke-miterlimit="10" points="922.034,312.987 938.334,341.22 905.733,341.22 "/>
<polygon stroke="#030104" stroke-width="2" stroke-miterlimit="10" points="938.335,928.007 905.734,927.94 921.977,956.206 "/>
<text transform="matrix(1 0 0 1 46.4292 363)" font-family="'MyriadPro-Regular'" font-size="48">Chip 1 (dd:mm:aa  hh:mm) [borrar]</text>
<text transform="matrix(1 0 0 1 46.4292 424)" font-family="'MyriadPro-Regular'" font-size="48">Chip 2 (dd:mm:aa  hh:mm) [borrar]</text>
<line fill="#FFFFFF" stroke="#000000" stroke-miterlimit="10" x1="19.625" y1="379" x2="899" y2="379"/>
<text transform="matrix(1 0 0 1 46.4292 485)" font-family="'MyriadPro-Regular'" font-size="48">Chip 3 (dd:mm:aa  hh:mm) [borrar]</text>
<line fill="#FFFFFF" stroke="#000000" stroke-miterlimit="10" x1="19.625" y1="500" x2="899" y2="500"/>
<text transform="matrix(1 0 0 1 46.1167 550)" font-family="'MyriadPro-Regular'" font-size="48">Chip 4 (dd:mm:aa  hh:mm) [borrar]</text>
<line fill="#FFFFFF" stroke="#000000" stroke-miterlimit="10" x1="19.312" y1="566" x2="898.688" y2="566"/>
<line fill="#FFFFFF" stroke="#000000" stroke-miterlimit="10" x1="19.312" y1="439" x2="898.688" y2="439"/>
<g>
	<rect x="21" y="989.104" fill="none" stroke="#030104" stroke-width="4" stroke-miterlimit="10" width="148.416" height="42"/>
	<text transform="matrix(1 0 0 1 45.416 1018.1035)" fill="#030104" font-family="'MyriadPro-Regular'" font-size="23">Mis chips</text>
</g>
<g>
	
		<rect x="796.652" y="989.104" fill="none" stroke="#030104" stroke-width="4" stroke-miterlimit="10" width="148.416" height="42"/>
	<text transform="matrix(1 0 0 1 821.0684 1018.1035)" fill="#030104" font-family="'MyriadPro-Regular'" font-size="23">Crear chip</text>
</g>
</svg>
