<?xml version="1.0" encoding="utf-8"?>
<!-- Generator: Adobe Illustrator 16.0.2, SVG Export Plug-In . SVG Version: 6.00 Build 0)  -->
<!DOCTYPE svg PUBLIC "-//W3C//DTD SVG 1.1//EN" "http://www.w3.org/Graphics/SVG/1.1/DTD/svg11.dtd">
<svg version="1.1" id="Layer_1" xmlns="http://www.w3.org/2000/svg" xmlns:xlink="http://www.w3.org/1999/xlink" x="0px" y="0px"
	 width="841.89px" height="595.28px" viewBox="0 0 841.89 595.28" enable-background="new 0 0 841.89 595.28" xml:space="preserve">
<g>
	<g>
		<path fill-rule="evenodd" clip-rule="evenodd" fill="none" d="M295.35,383.131c-90.342,0-180.683-0.063-271.024,0.153
			c-5.518,0.015-6.641-1.111-6.629-6.629c0.211-99.284,0.211-198.566,0-297.85c-0.012-5.518,1.111-6.632,6.629-6.627
			c180.683,0.184,361.366,0.184,542.049,0c5.517-0.005,6.642,1.107,6.63,6.627c-0.212,99.282-0.212,198.566,0,297.85
			c0.012,5.516-1.108,6.644-6.629,6.629C476.034,383.067,385.692,383.131,295.35,383.131z M325.79,323.85
			c6.105-2.595,14.728-1.894,12.437-12.441c-2.223-0.838-4.375-0.153-6.201,0.88c-10.085,5.706-18.134,3.796-24.404-5.996
			c-1.575-2.46-5.803-4.106-4.198-7.431c1.42-2.941,5.528-2.115,8.479-2.355c14.794-1.204,28.536-6.103,40.539-14.278
			c31.559-21.493,46.827-66.833,36.054-104.297c-4.224-14.69-2.313-19.344,11.104-25.022c4.837-2.048,5.394-4.348,2.236-8.226
			c-3.485-4.278-8.216-7.465-10.727-12.604c-12.344-25.266-45.943-28.424-64.213-6.988c-9.59,11.253-14.054,25.295-22.971,36.673
			c-24.869,31.732-49.833,63.292-77.812,92.527c-15.15,15.832-32.509,25.797-52.541,32.682
			c-19.514,6.708-38.903,13.781-58.454,20.378c-7.135,2.408-4.966,7.698-4.151,12.112c1.082,5.843,5.657,4.302,9.605,3.295
			c26.396-6.725,50.12-21.051,78.309-23.84c14.33-1.418,29.065-7.267,43.983-8.911c20.879-2.304,39.509,3.16,53.971,19.318
			c1.879,2.102,5.841,4.333,3.612,7.534c-1.881,2.702-6.239,3.684-9.324,2.226c-6.125-2.893-10.597-0.161-15.376,2.869
			c-1.762,1.116-4.152,2.623-5.855,2.228c-13.994-3.25-28.333,3.27-42.323-1.809c-3.445-1.25-7.731-0.186-11.734-0.186
			c10.146,11.255,24.908,7.082,36.834,12.071c2.63,1.101,8.039-1.29,10.523-3.739c3.547-3.5,2.999-4.325,6.401-2.331
			c3.617,2.121,6.888,5.31,10.498-0.206c0.487-0.744,4.36-0.856,4.965,0.914c3.873,11.35,13.292,7.328,20.562,6.939
			c8.701-0.466,17.169-0.82,25.582,1.698c13.039,3.904,30.069-2.712,38.787-15.65C355.175,328.824,340.541,324.415,325.79,323.85z"
			/>
		<path fill-rule="evenodd" clip-rule="evenodd" d="M325.79,323.85c14.75,0.565,29.385,4.975,44.198-1.966
			c-8.718,12.938-25.748,19.555-38.787,15.65c-8.412-2.519-16.88-2.164-25.582-1.698c-7.271,0.389-16.689,4.41-20.562-6.939
			c-0.604-1.771-4.478-1.658-4.965-0.914c-3.61,5.516-6.881,2.327-10.498,0.206c-3.402-1.994-2.854-1.169-6.401,2.331
			c-2.485,2.449-7.893,4.84-10.523,3.739c-11.927-4.989-26.688-0.816-36.834-12.071c4.002,0,8.289-1.064,11.734,0.186
			c13.991,5.078,28.329-1.441,42.323,1.809c1.704,0.396,4.094-1.111,5.855-2.228c4.779-3.03,9.251-5.762,15.376-2.869
			c3.085,1.458,7.443,0.477,9.324-2.226c2.229-3.201-1.733-5.433-3.612-7.534c-14.462-16.158-33.091-21.622-53.971-19.318
			c-14.918,1.644-29.653,7.492-43.983,8.911c-28.189,2.789-51.913,17.115-78.309,23.84c-3.948,1.007-8.523,2.548-9.605-3.295
			c-0.815-4.414-2.984-9.704,4.151-12.112c19.55-6.598,38.939-13.67,58.454-20.378c20.032-6.885,37.391-16.851,52.541-32.682
			c27.979-29.235,52.943-60.795,77.812-92.527c8.917-11.378,13.381-25.419,22.971-36.673c18.27-21.436,51.87-18.278,64.213,6.988
			c2.511,5.14,7.242,8.327,10.727,12.604c3.157,3.877,2.601,6.177-2.236,8.226c-13.417,5.679-15.328,10.333-11.104,25.022
			c10.772,37.464-4.496,82.804-36.054,104.297c-12.003,8.175-25.745,13.075-40.539,14.278c-2.951,0.24-7.06-0.585-8.479,2.355
			c-1.605,3.324,2.623,4.971,4.198,7.431c6.27,9.792,14.319,11.702,24.404,5.996c1.826-1.033,3.978-1.718,6.194-0.881
			C340.518,321.956,331.896,321.255,325.79,323.85z M328.576,165.688c6.593,4.737,14.374,3.595,21.251,5.689
			c11.391,3.467,14.766,1.772,20.068-9.38c3.364-7.077,0.546-12.961-7.823-16.335c-5.645-2.276-16.733,1.579-16.651,6.867
			c0.137,8.892-5.07,6.236-9.589,6.186c-0.291-0.003-0.591,0.824-0.701,0.986c0.354,2.929,5.23,2.237,4.594,5.938
			C335.923,167.425,332.553,163.32,328.576,165.688z"/>
		<path fill-rule="evenodd" clip-rule="evenodd" fill="none" d="M328.576,165.688c3.977-2.368,7.347,1.736,11.15-0.049
			c0.636-3.702-4.24-3.01-4.594-5.938c0.109-0.162,0.41-0.99,0.701-0.986c4.519,0.051,9.726,2.707,9.589-6.186
			c-0.082-5.288,11.006-9.144,16.651-6.867c8.369,3.375,11.187,9.259,7.823,16.335c-5.302,11.152-8.677,12.847-20.068,9.38
			C342.95,169.284,335.169,170.426,328.576,165.688z"/>
	</g>
</g>
</svg>
